<svg data-v-423bf9ae="" xmlns="http://www.w3.org/2000/svg" viewBox="0 0 724 90" class="iconLeft"><!----><!----><!----><g data-v-423bf9ae="" id="b66f9e10-02dc-4a3b-8875-42084985c35f" fill="white" transform="matrix(5.74712610244751,0,0,5.74712610244751,106.78160095214844,-6.264365196228027)"><path d="M0.56 9.17C0.56 11.94 2.80 14.14 5.63 14.14C6.99 14.14 8.30 13.54 9.27 12.63L8.58 11.86C7.81 12.59 6.76 13.03 5.68 13.03C3.47 13.03 1.69 11.31 1.69 9.17C1.69 7.01 3.47 5.31 5.68 5.31C6.76 5.31 7.83 5.77 8.58 6.54L9.25 5.68C8.32 4.80 7.01 4.26 5.67 4.26C2.83 4.26 0.56 6.43 0.56 9.17ZM10.39 10.39C10.39 12.60 11.94 14.13 14.13 14.13C16.31 14.13 17.86 12.60 17.86 10.39C17.86 8.19 16.31 6.68 14.13 6.68C11.94 6.68 10.39 8.19 10.39 10.39ZM11.48 10.40C11.48 8.79 12.59 7.67 14.13 7.67C15.67 7.67 16.77 8.79 16.77 10.40C16.77 12.03 15.67 13.15 14.13 13.15C12.59 13.15 11.48 12.03 11.48 10.40ZM19.78 14.08L20.87 14.08L20.87 10.12C21 8.72 21.90 7.77 23.35 7.76C24.65 7.76 25.44 8.53 25.44 9.83L25.44 14.08L26.53 14.08L26.53 9.53C26.53 7.76 25.49 6.66 23.73 6.66C22.39 6.68 21.39 7.21 20.87 8.33L20.87 6.71L19.78 6.71ZM28.97 14.08L30.06 14.08L30.06 10.12C30.18 8.72 31.08 7.77 32.54 7.76C33.84 7.76 34.62 8.53 34.62 9.83L34.62 14.08L35.71 14.08L35.71 9.53C35.71 7.76 34.68 6.66 32.91 6.66C31.57 6.68 30.58 7.21 30.06 8.33L30.06 6.71L28.97 6.71ZM37.41 10.40C37.41 12.60 38.91 14.13 41.08 14.13C42.31 14.13 43.34 13.68 44.04 12.89L43.44 12.25C42.87 12.85 42.07 13.17 41.16 13.17C39.73 13.17 38.68 12.26 38.49 10.82L44.51 10.82C44.62 8.32 43.44 6.66 41.06 6.68C38.92 6.68 37.41 8.20 37.41 10.40ZM38.49 9.93C38.65 8.53 39.66 7.62 41.06 7.62C42.50 7.62 43.46 8.51 43.53 9.93ZM45.64 10.40C45.64 12.60 47.15 14.13 49.29 14.13C50.57 14.13 51.59 13.65 52.25 12.85L51.62 12.18C51.10 12.80 50.30 13.13 49.34 13.13C47.81 13.13 46.72 12.01 46.72 10.40C46.72 8.79 47.81 7.69 49.34 7.69C50.23 7.69 50.97 8.01 51.53 8.54L52.14 7.77C51.46 7.07 50.48 6.66 49.29 6.68C47.17 6.68 45.64 8.20 45.64 10.40ZM53.44 7.83L54.50 7.83L54.50 12.04C54.50 13.50 55.30 14.14 56.38 14.14C56.97 14.13 57.53 13.93 58.04 13.58L57.74 12.70C57.33 12.95 56.94 13.08 56.56 13.08C55.93 13.08 55.58 12.74 55.58 11.84L55.58 7.83L57.92 7.83L57.92 6.93L55.58 6.94L55.58 5.00L54.50 5.00L54.50 6.94L53.44 6.94ZM58.95 10.40C58.95 12.60 60.45 14.13 62.62 14.13C63.85 14.13 64.89 13.68 65.59 12.89L64.99 12.25C64.41 12.85 63.62 13.17 62.71 13.17C61.28 13.17 60.23 12.26 60.03 10.82L66.05 10.82C66.16 8.32 64.99 6.66 62.61 6.68C60.47 6.68 58.95 8.20 58.95 10.40ZM60.03 9.93C60.20 8.53 61.21 7.62 62.61 7.62C64.05 7.62 65.00 8.51 65.07 9.93ZM67.19 10.39C67.19 12.59 68.64 14.14 70.74 14.14C72.06 14.14 73.07 13.54 73.61 12.50L73.61 14.08L74.70 14.08L74.70 3.70L73.61 3.70L73.61 8.30C73.07 7.25 72.04 6.65 70.73 6.65C68.64 6.65 67.19 8.18 67.19 10.39ZM68.28 10.42C68.28 8.81 69.38 7.64 70.95 7.64C72.51 7.64 73.61 8.81 73.61 10.42C73.61 12.01 72.51 13.16 70.95 13.16C69.38 13.16 68.28 12.01 68.28 10.42ZM77.59 14.08L78.71 14.08L78.71 9.77L84.62 9.77L84.62 14.08L85.74 14.08L85.74 4.28L84.62 4.28L84.62 8.71L78.71 8.71L78.71 4.28L77.59 4.28ZM87.81 10.39C87.81 12.60 89.36 14.13 91.55 14.13C93.73 14.13 95.28 12.60 95.28 10.39C95.28 8.19 93.73 6.68 91.55 6.68C89.36 6.68 87.81 8.19 87.81 10.39ZM88.90 10.40C88.90 8.79 90.01 7.67 91.55 7.67C93.09 7.67 94.19 8.79 94.19 10.40C94.19 12.03 93.09 13.15 91.55 13.15C90.01 13.15 88.90 12.03 88.90 10.40ZM96.22 13.09C96.92 13.76 98.00 14.13 99.05 14.13C100.46 14.13 101.75 13.48 101.75 12.03C101.75 9.38 97.64 10.22 97.64 8.58C97.64 7.90 98.27 7.60 99.09 7.60C99.78 7.60 100.52 7.84 101.09 8.20L101.51 7.34C100.90 6.92 100.04 6.66 99.16 6.66C97.82 6.66 96.60 7.25 96.60 8.67C96.59 11.28 100.72 10.37 100.67 12.15C100.66 12.88 99.96 13.20 99.09 13.20C98.22 13.20 97.27 12.85 96.64 12.26ZM102.75 7.83L103.81 7.83L103.81 12.04C103.81 13.50 104.61 14.14 105.69 14.14C106.27 14.13 106.83 13.93 107.35 13.58L107.04 12.70C106.64 12.95 106.25 13.08 105.87 13.08C105.24 13.08 104.89 12.74 104.89 11.84L104.89 7.83L107.23 7.83L107.23 6.93L104.89 6.94L104.89 5.00L103.81 5.00L103.81 6.94L102.75 6.94Z"></path></g><!----><g data-v-423bf9ae="" id="b14d5ea2-0679-42a6-9ae6-a909c1103934" transform="matrix(2.8125,0,0,2.8125,0,0)" stroke="none" fill="white"><path d="M9.382 8.675h13.943v13.943L32 31.293V0H.707zM22.618 23.325H8.675V9.382L0 .707V32h31.293z"></path></g><!----></svg>