<svg xmlns="http://www.w3.org/2000/svg" viewBox="0 0 724 90" class="iconLeft"><path d="M110 46.437C110 62.357 122.874 75 139.138 75c7.816 0 15.345-3.448 20.92-8.678l-3.966-4.425c-4.425 4.195-10.46 6.724-16.667 6.724-12.7 0-22.93-9.885-22.93-22.184 0-12.414 10.23-22.184 22.93-22.184 6.207 0 12.357 2.644 16.667 7.069l3.85-4.943c-5.344-5.057-12.873-8.16-20.574-8.16-16.322 0-29.368 12.47-29.368 28.218zm56.494 7.011c0 12.701 8.908 21.495 21.494 21.495 12.53 0 21.437-8.794 21.437-21.495 0-12.643-8.908-21.322-21.437-21.322-12.586 0-21.494 8.679-21.494 21.322zm6.265.058c0-9.253 6.379-15.69 15.23-15.69 8.85 0 15.172 6.437 15.172 15.69 0 9.368-6.322 15.804-15.173 15.804-8.85 0-15.23-6.436-15.23-15.804zm47.7 21.15h6.265v-22.76c.747-8.045 5.92-13.505 14.253-13.563 7.471 0 12.011 4.426 12.011 11.897v24.425h6.265v-26.15c0-10.172-5.977-16.494-16.092-16.494-7.701.115-13.448 3.161-16.437 9.598V32.3h-6.264zm52.817 0h6.264v-22.76c.69-8.045 5.862-13.505 14.253-13.563 7.471 0 11.954 4.426 11.954 11.897v24.425h6.264v-26.15c0-10.172-5.92-16.494-16.091-16.494-7.702.115-13.391 3.161-16.38 9.598V32.3h-6.264zm48.506-21.15c0 12.643 8.62 21.437 21.092 21.437 7.069 0 12.988-2.587 17.011-7.127l-3.448-3.678c-3.276 3.448-7.874 5.287-13.104 5.287-8.218 0-14.253-5.23-15.345-13.505h34.598c.632-14.368-6.15-23.909-19.827-23.794-12.3 0-20.977 8.736-20.977 21.38zm6.206-2.701c.92-8.046 6.725-13.276 14.77-13.276 8.276 0 13.794 5.115 14.196 13.276zm41.092 2.7c0 12.644 8.679 21.438 20.977 21.438 7.357 0 13.219-2.76 17.012-7.357l-3.62-3.85c-2.99 3.563-7.587 5.46-13.104 5.46-8.793 0-15.058-6.437-15.058-15.69s6.265-15.575 15.058-15.575c5.115 0 9.368 1.84 12.586 4.885l3.506-4.425c-3.908-4.023-9.54-6.38-16.38-6.265-12.183 0-20.977 8.736-20.977 21.38zm44.828-14.77H420v24.196C420 71.321 424.598 75 430.805 75c3.39-.057 6.609-1.207 9.54-3.218l-1.724-5.058c-2.357 1.437-4.598 2.184-6.782 2.184-3.62 0-5.632-1.954-5.632-7.126V38.736h13.448v-5.173l-13.448.058V22.47H420v11.15h-6.092zm31.667 14.77c0 12.644 8.62 21.438 21.092 21.438 7.069 0 13.046-2.587 17.069-7.127l-3.449-3.678c-3.333 3.448-7.873 5.287-13.103 5.287-8.219 0-14.253-5.23-15.402-13.505h34.597c.632-14.368-6.092-23.909-19.77-23.794-12.299 0-21.034 8.736-21.034 21.38zm6.207-2.7c.977-8.046 6.781-13.276 14.827-13.276 8.276 0 13.736 5.115 14.138 13.276zm41.149 2.643c0 12.644 8.333 21.552 20.402 21.552 7.587 0 13.391-3.448 16.495-9.425v9.08h6.264V15h-6.264v26.437c-3.104-6.035-9.023-9.483-16.552-9.483-12.012 0-20.345 8.793-20.345 21.494zm6.264.173c0-9.253 6.322-15.977 15.345-15.977 8.966 0 15.288 6.724 15.288 15.977 0 9.138-6.322 15.747-15.288 15.747-9.023 0-15.345-6.61-15.345-15.747zm53.506 21.034h6.437v-24.77h33.965v24.77h6.437V18.333h-6.437v25.46h-33.965v-25.46H552.7zm58.736-21.207c0 12.701 8.908 21.495 21.494 21.495 12.529 0 21.437-8.794 21.437-21.495 0-12.643-8.908-21.322-21.437-21.322-12.586 0-21.494 8.679-21.494 21.322zm6.264.058c0-9.253 6.38-15.69 15.23-15.69 8.85 0 15.172 6.437 15.172 15.69 0 9.368-6.321 15.804-15.172 15.804-8.85 0-15.23-6.436-15.23-15.804zm42.07 15.46c4.022 3.85 10.229 5.977 16.263 5.977 8.104 0 15.518-3.736 15.518-12.07 0-15.23-23.621-10.402-23.621-19.827 0-3.908 3.62-5.632 8.333-5.632 3.966 0 8.219 1.38 11.495 3.448l2.413-4.942c-3.505-2.414-8.448-3.909-13.505-3.909-7.702 0-14.713 3.391-14.713 11.552-.057 15 23.678 9.77 23.39 20-.057 4.196-4.08 6.035-9.08 6.035s-10.46-2.012-14.08-5.403zm37.528-30.23h6.092V62.93c0 8.39 4.597 12.069 10.804 12.069 3.334-.057 6.552-1.207 9.54-3.218l-1.781-5.058c-2.299 1.437-4.54 2.184-6.724 2.184-3.62 0-5.632-1.954-5.632-7.126V38.736h13.448v-5.173l-13.448.058V22.47h-6.207v11.15h-6.092zM26.387 24.398h39.215v39.215L90 88.012V0H1.988zm37.226 41.204H24.398V26.387L0 1.988V90h88.012z" fill="#fff"/></svg>